<svg width="195" height="40" viewBox="0 0 195 40" fill="none" xmlns="http://www.w3.org/2000/svg">
  <path d="M68.7803 13.2031V22.1592C68.7803 22.9854 68.6016 23.7031 68.2441 24.3125C67.8867 24.916 67.3887 25.3789 66.75 25.7012C66.1172 26.0176 65.3965 26.1758 64.5879 26.1758C63.7559 26.1758 63.0264 26.0352 62.3994 25.7539C61.7725 25.4727 61.2803 25.0449 60.9229 24.4707C60.5713 23.8906 60.3955 23.1758 60.3955 22.3262H62.6719C62.6719 23.0293 62.8418 23.542 63.1816 23.8643C63.5215 24.1865 63.9902 24.3477 64.5879 24.3477C65.168 24.3477 65.6338 24.1572 65.9854 23.7764C66.3369 23.3896 66.5127 22.8506 66.5127 22.1592V13.2031H68.7803ZM78.958 16.4902V26H76.8926L76.8398 25.0596C76.2188 25.8037 75.3311 26.1758 74.1768 26.1758C73.1924 26.1758 72.4219 25.8887 71.8652 25.3145C71.3086 24.7402 71.0303 23.8467 71.0303 22.6338V16.4902H73.2188V22.6514C73.2188 23.2725 73.3535 23.7178 73.623 23.9873C73.8984 24.251 74.2588 24.3828 74.7041 24.3828C75.7178 24.3828 76.4033 24.0225 76.7607 23.3018V16.4902H78.958ZM81.2432 26V12.5H83.4316V26H81.2432ZM90.1729 14.1084C89.6924 14.1084 89.3203 14.2373 89.0566 14.4951C88.793 14.7529 88.6611 15.1191 88.6611 15.5938V16.4902H90.5859V18.1074H88.6611V26H86.4727V18.1074H85.0225V16.4902H86.4727V15.5938C86.4727 14.8965 86.6074 14.3018 86.877 13.8096C87.1465 13.3174 87.5332 12.9453 88.0371 12.6934C88.541 12.4414 89.1387 12.3154 89.8301 12.3154C90.2168 12.3154 90.6211 12.3682 91.043 12.4736L90.9902 14.1875C90.7617 14.1348 90.4893 14.1084 90.1729 14.1084ZM93.3633 12.8516C93.7441 12.8516 94.0459 12.9629 94.2686 13.1855C94.4912 13.4023 94.6025 13.6807 94.6025 14.0205C94.6025 14.3545 94.4912 14.6299 94.2686 14.8467C94.0459 15.0635 93.7441 15.1719 93.3633 15.1719C92.9824 15.1719 92.6807 15.0664 92.458 14.8555C92.2354 14.6387 92.124 14.3604 92.124 14.0205C92.124 13.6807 92.2354 13.4023 92.458 13.1855C92.6807 12.9629 92.9824 12.8516 93.3633 12.8516ZM92.2646 26V16.4902H94.4531V26H92.2646ZM104.71 16.4902V29.6562H102.521V25.1826C101.895 25.8447 101.089 26.1758 100.104 26.1758C99.3311 26.1758 98.6602 25.9678 98.0918 25.5518C97.5293 25.1357 97.0986 24.5615 96.7998 23.8291C96.501 23.0967 96.3516 22.2676 96.3516 21.3418V21.1572C96.3516 20.1904 96.498 19.3438 96.791 18.6172C97.0898 17.8848 97.5234 17.3193 98.0918 16.9209C98.6602 16.5166 99.3369 16.3145 100.122 16.3145C101.171 16.3145 102.009 16.6865 102.636 17.4307L102.759 16.4902H104.71ZM100.667 24.418C101.505 24.418 102.123 24.0635 102.521 23.3545V19.0918C102.334 18.7695 102.088 18.5205 101.783 18.3447C101.479 18.1631 101.112 18.0723 100.685 18.0723C99.9639 18.0723 99.4248 18.3594 99.0674 18.9336C98.7158 19.5078 98.54 20.249 98.54 21.1572V21.3418C98.54 22.2441 98.7158 22.9824 99.0674 23.5566C99.4189 24.1309 99.9521 24.418 100.667 24.418ZM114.51 23.7852C114.51 24.6523 114.63 25.3408 114.87 25.8506V26H112.638C112.544 25.7949 112.462 25.499 112.392 25.1123C112.093 25.4346 111.735 25.6924 111.319 25.8857C110.903 26.0791 110.432 26.1758 109.904 26.1758C109.283 26.1758 108.727 26.0527 108.234 25.8066C107.742 25.5605 107.358 25.2207 107.083 24.7871C106.808 24.3535 106.67 23.8672 106.67 23.3281C106.67 22.3145 107.045 21.5381 107.795 20.999C108.551 20.46 109.62 20.1904 111.003 20.1904H112.321V19.5752C112.321 19.0713 112.184 18.6787 111.908 18.3975C111.633 18.1104 111.226 17.9668 110.687 17.9668C110.364 17.9668 110.08 18.0225 109.834 18.1338C109.588 18.2451 109.397 18.3975 109.263 18.5908C109.128 18.7842 109.061 19.001 109.061 19.2412H106.872C106.872 18.7314 107.033 18.2539 107.355 17.8086C107.684 17.3574 108.146 16.9971 108.744 16.7275C109.348 16.4521 110.036 16.3145 110.81 16.3145C111.536 16.3145 112.178 16.4375 112.734 16.6836C113.291 16.9297 113.725 17.2988 114.035 17.791C114.352 18.2832 114.51 18.8838 114.51 19.5928V23.7852ZM110.326 24.4268C110.783 24.4268 111.188 24.3184 111.539 24.1016C111.896 23.8848 112.157 23.624 112.321 23.3193V21.5439H111.179C110.417 21.5439 109.84 21.6816 109.447 21.957C109.055 22.2324 108.858 22.6191 108.858 23.1172C108.858 23.5039 108.987 23.8203 109.245 24.0664C109.503 24.3066 109.863 24.4268 110.326 24.4268ZM120.996 16.3145C121.119 16.3145 121.257 16.3262 121.409 16.3496C121.567 16.373 121.685 16.3994 121.761 16.4287L121.743 18.4941C121.45 18.4473 121.16 18.4238 120.873 18.4238C119.895 18.4238 119.238 18.79 118.904 19.5225V26H116.716V16.4902H118.799L118.86 17.5625C119.101 17.1641 119.399 16.8564 119.757 16.6396C120.114 16.4229 120.527 16.3145 120.996 16.3145ZM135.674 26L130.04 17V26H127.764V13.2031H130.04L135.691 22.2207V13.2031H137.95V26H135.674ZM147.873 23.7852C147.873 24.6523 147.993 25.3408 148.233 25.8506V26H146.001C145.907 25.7949 145.825 25.499 145.755 25.1123C145.456 25.4346 145.099 25.6924 144.683 25.8857C144.267 26.0791 143.795 26.1758 143.268 26.1758C142.646 26.1758 142.09 26.0527 141.598 25.8066C141.105 25.5605 140.722 25.2207 140.446 24.7871C140.171 24.3535 140.033 23.8672 140.033 23.3281C140.033 22.3145 140.408 21.5381 141.158 20.999C141.914 20.46 142.983 20.1904 144.366 20.1904H145.685V19.5752C145.685 19.0713 145.547 18.6787 145.271 18.3975C144.996 18.1104 144.589 17.9668 144.05 17.9668C143.728 17.9668 143.443 18.0225 143.197 18.1338C142.951 18.2451 142.761 18.3975 142.626 18.5908C142.491 18.7842 142.424 19.001 142.424 19.2412H140.235C140.235 18.7314 140.396 18.2539 140.719 17.8086C141.047 17.3574 141.51 16.9971 142.107 16.7275C142.711 16.4521 143.399 16.3145 144.173 16.3145C144.899 16.3145 145.541 16.4375 146.098 16.6836C146.654 16.9297 147.088 17.2988 147.398 17.791C147.715 18.2832 147.873 18.8838 147.873 19.5928V23.7852ZM143.689 24.4268C144.146 24.4268 144.551 24.3184 144.902 24.1016C145.26 23.8848 145.521 23.624 145.685 23.3193V21.5439H144.542C143.78 21.5439 143.203 21.6816 142.811 21.957C142.418 22.2324 142.222 22.6191 142.222 23.1172C142.222 23.5039 142.351 23.8203 142.608 24.0664C142.866 24.3066 143.227 24.4268 143.689 24.4268ZM151.318 12.8516C151.699 12.8516 152.001 12.9629 152.224 13.1855C152.446 13.4023 152.558 13.6807 152.558 14.0205C152.558 14.3545 152.446 14.6299 152.224 14.8467C152.001 15.0635 151.699 15.1719 151.318 15.1719C150.938 15.1719 150.636 15.0664 150.413 14.8555C150.19 14.6387 150.079 14.3604 150.079 14.0205C150.079 13.6807 150.19 13.4023 150.413 13.1855C150.636 12.9629 150.938 12.8516 151.318 12.8516ZM150.22 26V16.4902H152.408V26H150.22ZM165.082 16.3145C166.09 16.3145 166.86 16.5986 167.394 17.167C167.927 17.7295 168.193 18.623 168.193 19.8477V26H166.005V19.8389C166.005 19.1885 165.864 18.7373 165.583 18.4854C165.308 18.2275 164.892 18.0986 164.335 18.0986C163.878 18.0986 163.494 18.2217 163.184 18.4678C162.879 18.7139 162.662 19.0449 162.533 19.4609L162.542 19.6631V26H160.354V19.8652C160.354 19.2266 160.21 18.7725 159.923 18.5029C159.642 18.2334 159.226 18.0986 158.675 18.0986C157.837 18.0986 157.242 18.4414 156.891 19.127V26H154.702V16.4902H156.759L156.829 17.4922C157.151 17.1113 157.541 16.8213 157.998 16.6221C158.461 16.417 158.985 16.3145 159.571 16.3145C160.169 16.3145 160.69 16.4346 161.136 16.6748C161.581 16.9092 161.924 17.2725 162.164 17.7646C162.486 17.3076 162.894 16.9531 163.386 16.7012C163.878 16.4434 164.443 16.3145 165.082 16.3145Z" fill="#5D5D5D" />
  <mask id="mask0" mask-type="alpha" maskUnits="userSpaceOnUse" x="0" y="0" width="40" height="40">
    <circle cx="20" cy="20" r="20" fill="#C4C4C4" />
  </mask>
  <g mask="url(#mask0)">
    <rect x="-4" width="44" height="50" fill="" />
  </g>
  <path d="M188.5 25L182 17H195L188.5 25Z" fill="#5D5D5D" />
</svg>
